<?xml version="1.0" standalone="no"?>
<!DOCTYPE svg PUBLIC "-//W3C//DTD SVG 20010904//EN"
 "http://www.w3.org/TR/2001/REC-SVG-20010904/DTD/svg10.dtd">
<svg version="1.0" xmlns="http://www.w3.org/2000/svg"
 width="100.000000pt" height="100.000000pt" viewBox="0 0 100.000000 100.000000"
 preserveAspectRatio="xMidYMid meet">
<metadata>
Created by potrace 1.14, written by Peter Selinger 2001-2017
</metadata>
<g transform="translate(0.000000,100.000000) scale(0.100000,-0.100000)"
fill="#000000" stroke="none">
<path d="M150 550 l0 -430 345 0 345 0 0 430 0 430 -345 0 -345 0 0 -430z
m650 325 l0 -75 -310 0 -310 0 0 75 0 75 310 0 310 0 0 -75z m-490 -165 l0
-70 -65 0 -65 0 0 70 0 70 65 0 65 0 0 -70z m160 0 l0 -70 -70 0 -70 0 0 70 0
70 70 0 70 0 0 -70z m160 0 l0 -70 -70 0 -70 0 0 70 0 70 70 0 70 0 0 -70z
m150 0 l0 -70 -65 0 -65 0 0 70 0 70 65 0 65 0 0 -70z m-470 -150 l0 -70 -65
0 -65 0 0 70 0 70 65 0 65 0 0 -70z m160 0 l0 -70 -70 0 -70 0 0 70 0 70 70 0
70 0 0 -70z m160 0 l0 -70 -70 0 -70 0 0 70 0 70 70 0 70 0 0 -70z m150 0 l0
-70 -65 0 -65 0 0 70 0 70 65 0 65 0 0 -70z m-470 -160 l0 -70 -65 0 -65 0 0
70 0 70 65 0 65 0 0 -70z m160 0 l0 -70 -70 0 -70 0 0 70 0 70 70 0 70 0 0
-70z m160 0 l0 -70 -70 0 -70 0 0 70 0 70 70 0 70 0 0 -70z m150 0 l0 -70 -65
0 -65 0 0 70 0 70 65 0 65 0 0 -70z m-470 -160 l0 -70 -65 0 -65 0 0 70 0 70
65 0 65 0 0 -70z m160 0 l0 -70 -70 0 -70 0 0 70 0 70 70 0 70 0 0 -70z m160
0 l0 -70 -70 0 -70 0 0 70 0 70 70 0 70 0 0 -70z m150 40 l0 -30 -65 0 -65 0
0 30 0 30 65 0 65 0 0 -30z m0 -75 l0 -35 -65 0 -65 0 0 35 0 35 65 0 65 0 0
-35z"/>
</g>
</svg>
